<svg width="17" height="18" viewBox="0 0 17 18" fill="none" xmlns="http://www.w3.org/2000/svg">
<path d="M15.6575 6.43578L9.8075 1.28339C8.97179 0.447679 7.61117 0.447679 6.80999 1.24886L0.890963 6.47031C0.317708 7.04357 0 7.81021 0 8.6252V15.525C0 16.6715 0.932403 17.6039 2.07891 17.6039H14.511C15.6506 17.6039 16.583 16.6715 16.583 15.525V8.6252C16.583 7.81021 16.2653 7.04357 15.6575 6.43578ZM15.2016 15.525C15.2016 15.9118 14.8908 16.2226 14.511 16.2226H10.1321V11.7746C10.1321 11.3741 9.8144 11.0564 9.41382 11.0564H7.16914C6.77546 11.0564 6.45085 11.3741 6.45085 11.7746V16.2226H2.07891C1.69214 16.2226 1.38134 15.9118 1.38134 15.525V8.6252C1.38134 8.19008 1.56091 7.75496 1.83718 7.47178L7.75621 2.25723C7.90125 2.11219 8.08773 2.03622 8.28112 2.03622C8.48832 2.03622 8.69552 2.1191 8.86128 2.28486L14.7112 7.44416C15.029 7.76186 15.2016 8.18317 15.2016 8.6252V15.525Z" fill="white"/>
</svg>
