<svg width="21" height="21" viewBox="0 0 21 21" fill="none" xmlns="http://www.w3.org/2000/svg">
<path d="M10.6094 1.00004C8.7088 1.00004 6.85093 1.56362 5.27069 2.61951C3.69044 3.67541 2.45878 5.17618 1.73147 6.93207C1.00416 8.68795 0.813867 10.6201 1.18464 12.4841C1.55542 14.3481 2.47062 16.0604 3.81451 17.4043C5.61664 19.2064 8.06084 20.2188 10.6094 20.2188C13.158 20.2188 15.6022 19.2064 17.4044 17.4043C19.2065 15.6021 20.2189 13.1579 20.2189 10.6093C20.2189 8.06074 19.2065 5.61654 17.4044 3.81441C16.5141 2.91931 15.4551 2.20969 14.2888 1.7266C13.1224 1.24351 11.8718 0.996557 10.6094 1.00004ZM17.0728 17.0728C15.4888 18.6551 13.3792 19.6012 11.1441 19.7317C8.90899 19.8622 6.7037 19.1679 4.94637 17.7807C3.18904 16.3934 2.00186 14.4095 1.60991 12.2051C1.21796 10.0008 1.6485 7.72924 2.8199 5.82121C3.18905 6.16332 3.926 7.14371 3.15104 9.07929C2.65541 10.3172 2.6817 11.4593 3.22916 12.4738C3.59319 13.1484 4.18647 13.7573 4.99244 14.2835C5.13096 14.3739 5.26358 14.4585 5.39088 14.5396C6.25623 15.0914 6.82791 15.456 7.31557 16.4173C7.36834 16.5213 7.42123 16.6338 7.47725 16.7528C7.91357 17.6805 8.52307 18.9765 10.4177 18.9765C10.9615 18.9765 11.6115 18.8697 12.3934 18.6167C13.432 18.2807 13.8856 17.5102 14.1856 17.0005C14.2775 16.8443 14.357 16.7093 14.4253 16.6361C15.5974 15.3807 16.1748 15.6092 16.7862 15.851L16.8307 15.8685L17.7179 16.3568C17.5154 16.6064 17.3 16.8454 17.0728 17.0728ZM18.007 15.9807L17.0435 15.4506L16.9586 15.415C16.2965 15.1533 15.4726 14.8273 14.0826 16.3161C13.9791 16.427 13.8875 16.5825 13.7815 16.7626C13.5016 17.2381 13.1183 17.8893 12.249 18.1706C9.13592 19.1779 8.45143 17.7226 7.90131 16.5534C7.84377 16.4311 7.7894 16.3155 7.73334 16.2052C7.18775 15.1297 6.53967 14.7164 5.64268 14.1445C5.51678 14.0642 5.38553 13.9804 5.2485 13.891C4.50869 13.408 3.96799 12.8562 3.64151 12.2512C3.16322 11.365 3.14455 10.3564 3.58608 9.25367C4.17057 7.79379 3.95822 6.79711 3.67721 6.21804C3.53242 5.91661 3.32871 5.64723 3.07811 5.42582C3.39479 4.96792 3.75219 4.53958 4.14596 4.14601C5.77246 2.52021 7.95198 1.56718 10.2499 1.47695C12.5479 1.38673 14.7954 2.16594 16.5444 3.65922C18.2934 5.15249 19.4152 7.25011 19.6863 9.5338C19.9574 11.8175 19.3578 14.1195 18.007 15.9807Z" fill="white" stroke="white" stroke-width="0.4"/>
<path d="M10.6094 6.45605C9.78791 6.45605 8.98488 6.69964 8.30184 7.15602C7.6188 7.6124 7.08644 8.26108 6.77207 9.02002C6.4577 9.77897 6.37545 10.6141 6.53571 11.4198C6.69597 12.2255 7.09155 12.9655 7.67242 13.5464C8.25329 14.1273 8.99336 14.5229 9.79906 14.6831C10.6047 14.8434 11.4399 14.7611 12.1988 14.4468C12.9578 14.1324 13.6064 13.6 14.0628 12.917C14.5192 12.234 14.7628 11.4309 14.7628 10.6095C14.7615 9.50828 14.3236 8.45257 13.5449 7.67393C12.7663 6.89528 11.7105 6.4573 10.6094 6.45605ZM10.6094 14.2941C9.88062 14.2942 9.16822 14.0781 8.56227 13.6732C7.95632 13.2683 7.48404 12.6928 7.20515 12.0196C6.92625 11.3463 6.85328 10.6054 6.99545 9.89063C7.13762 9.17587 7.48855 8.51932 8.00386 8.004C8.51917 7.48868 9.17572 7.13775 9.89048 6.99557C10.6052 6.85339 11.3461 6.92636 12.0194 7.20524C12.6927 7.48413 13.2682 7.9564 13.673 8.56235C14.0779 9.16829 14.294 9.88069 14.294 10.6095C14.2929 11.5863 13.9044 12.5229 13.2136 13.2137C12.5228 13.9045 11.5863 14.293 10.6094 14.2941Z" fill="white" stroke="white" stroke-width="0.4"/>
<path d="M5.5045 3.83747L4.79716 4.56501C4.75517 4.60981 4.73244 4.66931 4.73386 4.73069C4.73528 4.79208 4.76073 4.85046 4.80474 4.89327C4.84876 4.93609 4.90782 4.95992 4.96922 4.95965C5.03062 4.95937 5.08946 4.93501 5.13309 4.89181L5.84059 4.16415C5.86272 4.14223 5.88026 4.11613 5.89219 4.08735C5.90411 4.05858 5.91018 4.02772 5.91004 3.99657C5.9099 3.96543 5.90356 3.93462 5.89138 3.90595C5.8792 3.87729 5.86142 3.85134 5.8391 3.82962C5.81677 3.8079 5.79034 3.79085 5.76135 3.77947C5.73236 3.76808 5.70139 3.76259 5.67026 3.76331C5.63912 3.76403 5.60843 3.77095 5.58 3.78366C5.55157 3.79637 5.52595 3.81463 5.50466 3.83735L5.5045 3.83747Z" fill="white" stroke="white" stroke-width="0.4"/>
<path d="M8.01227 5.43231H8.9375C8.99966 5.43231 9.05928 5.40762 9.10323 5.36367C9.14718 5.31971 9.17188 5.2601 9.17188 5.19794C9.17188 5.13578 9.14718 5.07616 9.10323 5.03221C9.05928 4.98826 8.99966 4.96356 8.9375 4.96356H8.01227C7.95011 4.96356 7.89049 4.98826 7.84654 5.03221C7.80259 5.07616 7.77789 5.13578 7.77789 5.19794C7.77789 5.2601 7.80259 5.31971 7.84654 5.36367C7.89049 5.40762 7.95011 5.43231 8.01227 5.43231Z" fill="white" stroke="white" stroke-width="0.4"/>
<path d="M9.20938 2.98373H10.4172C10.4794 2.98373 10.539 2.95904 10.583 2.91509C10.6269 2.87113 10.6516 2.81152 10.6516 2.74936C10.6516 2.6872 10.6269 2.62758 10.583 2.58363C10.539 2.53968 10.4794 2.51498 10.4172 2.51498H9.20938C9.14722 2.51498 9.08761 2.53968 9.04365 2.58363C8.9997 2.62758 8.97501 2.6872 8.97501 2.74936C8.97501 2.81152 8.9997 2.87113 9.04365 2.91509C9.08761 2.95904 9.14722 2.98373 9.20938 2.98373Z" fill="white" stroke="white" stroke-width="0.4"/>
<path d="M4.98851 9.00744C5.01717 9.01867 5.04777 9.02414 5.07855 9.02354C5.10933 9.02294 5.13969 9.01629 5.16789 9.00395C5.1961 8.99162 5.2216 8.97385 5.24294 8.95166C5.26428 8.92947 5.28104 8.90329 5.29226 8.87462L5.5371 8.24962C5.55977 8.19174 5.55852 8.12723 5.53363 8.07027C5.50873 8.0133 5.46223 7.96857 5.40435 7.94589C5.34646 7.92322 5.28195 7.92447 5.22499 7.94937C5.16803 7.97426 5.12329 8.02077 5.10062 8.07865L4.85577 8.70365C4.84453 8.73231 4.83905 8.7629 4.83964 8.79368C4.84023 8.82446 4.84688 8.85483 4.85921 8.88304C4.87153 8.91125 4.88929 8.93676 4.91148 8.9581C4.93367 8.97944 4.95984 8.99621 4.98851 9.00744Z" fill="white" stroke="white" stroke-width="0.4"/>
<path d="M13.3176 4.71941C13.3618 4.7621 13.421 4.78572 13.4825 4.78519C13.5439 4.78465 13.6027 4.76 13.6462 4.71655C13.6896 4.67309 13.7143 4.61431 13.7148 4.55286C13.7153 4.49141 13.6917 4.4322 13.649 4.388L13.0045 3.74347C12.9603 3.70077 12.9011 3.67715 12.8396 3.67768C12.7782 3.67822 12.7194 3.70287 12.6759 3.74632C12.6325 3.78978 12.6078 3.84856 12.6073 3.91001C12.6068 3.97146 12.6304 4.03067 12.6731 4.07487L13.3176 4.71941Z" fill="white" stroke="white" stroke-width="0.4"/>
<path d="M16.5529 9.31391C16.6003 9.31389 16.6466 9.29947 16.6857 9.27255C16.7248 9.24564 16.7548 9.2075 16.7717 9.16318C16.7886 9.11885 16.7917 9.07043 16.7806 9.02432C16.7694 8.97821 16.7445 8.93657 16.7091 8.90492L16.0607 8.32422C16.0379 8.30277 16.0111 8.28609 15.9818 8.27517C15.9524 8.26426 15.9212 8.25932 15.89 8.26065C15.8587 8.26198 15.8281 8.26956 15.7998 8.28293C15.7715 8.2963 15.7462 8.3152 15.7253 8.33851C15.7045 8.36182 15.6885 8.38907 15.6783 8.41866C15.6681 8.44825 15.664 8.47957 15.6661 8.51078C15.6683 8.54199 15.6766 8.57246 15.6907 8.60039C15.7048 8.62831 15.7243 8.65314 15.7482 8.6734L16.3966 9.2541C16.4395 9.29266 16.4952 9.31397 16.5529 9.31391Z" fill="white" stroke="white" stroke-width="0.4"/>
<path d="M16.5795 5.62507C16.5613 5.60027 16.5383 5.5793 16.512 5.56336C16.4857 5.54742 16.4565 5.53682 16.426 5.53217C16.3956 5.52752 16.3646 5.52891 16.3347 5.53626C16.3048 5.5436 16.2766 5.55677 16.2518 5.57499L15.3857 6.21148C15.3356 6.24829 15.3022 6.30348 15.2928 6.36493C15.2834 6.42638 15.2988 6.48904 15.3356 6.53913C15.3724 6.58922 15.4276 6.62264 15.489 6.63203C15.5505 6.64142 15.6131 6.62602 15.6632 6.58921L16.5294 5.95273C16.5542 5.9345 16.5751 5.91157 16.5911 5.88524C16.607 5.85892 16.6176 5.8297 16.6223 5.79928C16.6269 5.76885 16.6256 5.73781 16.6182 5.70792C16.6109 5.67803 16.5977 5.64987 16.5795 5.62507Z" fill="white" stroke="white" stroke-width="0.4"/>
<path d="M17.4837 11.5614C17.4981 11.5615 17.5125 11.5601 17.5267 11.5575L18.7036 11.339C18.7339 11.3333 18.7628 11.3218 18.7886 11.305C18.8144 11.2883 18.8366 11.2666 18.8541 11.2412C18.8715 11.2158 18.8837 11.1873 18.8901 11.1571C18.8965 11.127 18.8969 11.096 18.8913 11.0657C18.8857 11.0354 18.8741 11.0066 18.8574 10.9807C18.8406 10.9549 18.8189 10.9327 18.7935 10.9153C18.7681 10.8978 18.7396 10.8856 18.7095 10.8792C18.6794 10.8728 18.6483 10.8724 18.618 10.878L17.4411 11.0965C17.3836 11.1072 17.3322 11.1389 17.2969 11.1855C17.2616 11.2321 17.2449 11.2902 17.2503 11.3484C17.2556 11.4066 17.2825 11.4607 17.3256 11.5001C17.3688 11.5395 17.4252 11.5614 17.4836 11.5614L17.4837 11.5614Z" fill="white" stroke="white" stroke-width="0.4"/>
<path d="M16.994 13.1095L16.1749 13.4046C16.1459 13.4149 16.1191 13.4309 16.0963 13.4516C16.0734 13.4723 16.0549 13.4974 16.0417 13.5253C16.0285 13.5531 16.021 13.5834 16.0195 13.6142C16.0181 13.645 16.0227 13.6758 16.0331 13.7048C16.0436 13.7338 16.0597 13.7605 16.0805 13.7833C16.1013 13.8061 16.1263 13.8245 16.1543 13.8376C16.1822 13.8507 16.2125 13.8581 16.2433 13.8595C16.2741 13.8608 16.3049 13.8561 16.3339 13.8455L17.1529 13.5504C17.1821 13.5402 17.209 13.5243 17.232 13.5036C17.255 13.4829 17.2737 13.4578 17.2869 13.4299C17.3002 13.4019 17.3078 13.3716 17.3094 13.3407C17.3109 13.3098 17.3062 13.2789 17.2958 13.2498C17.2853 13.2207 17.2691 13.194 17.2482 13.1711C17.2274 13.1483 17.2022 13.1298 17.1741 13.1168C17.1461 13.1037 17.1157 13.0964 17.0848 13.0951C17.0539 13.0938 17.023 13.0987 16.994 13.1095Z" fill="white" stroke="white" stroke-width="0.4"/>
<path d="M12.5373 16.1188H11.7231C11.661 16.1188 11.6013 16.1435 11.5574 16.1875C11.5134 16.2314 11.4887 16.2911 11.4887 16.3532C11.4887 16.4154 11.5134 16.475 11.5574 16.5189C11.6013 16.5629 11.661 16.5876 11.7231 16.5876H12.5373C12.5995 16.5876 12.6591 16.5629 12.7031 16.5189C12.747 16.475 12.7717 16.4154 12.7717 16.3532C12.7717 16.2911 12.747 16.2314 12.7031 16.1875C12.6591 16.1435 12.5995 16.1188 12.5373 16.1188Z" fill="white" stroke="white" stroke-width="0.4"/>
<path d="M8.70957 15.123C8.68781 15.1013 8.66197 15.084 8.63354 15.0722C8.6051 15.0604 8.57462 15.0544 8.54384 15.0544C8.51306 15.0544 8.48259 15.0604 8.45415 15.0722C8.42571 15.084 8.39987 15.1013 8.37811 15.123C8.35634 15.1448 8.33908 15.1706 8.3273 15.1991C8.31551 15.2275 8.30945 15.258 8.30945 15.2887C8.30945 15.3195 8.31551 15.35 8.32728 15.3784C8.33906 15.4069 8.35632 15.4327 8.37809 15.4545L8.91035 15.9868C8.93212 16.0086 8.95795 16.0258 8.98639 16.0376C9.01482 16.0494 9.0453 16.0554 9.07608 16.0554C9.10686 16.0555 9.13734 16.0494 9.16578 16.0376C9.19421 16.0258 9.22005 16.0086 9.24182 15.9868C9.26358 15.965 9.28085 15.9392 9.29263 15.9108C9.30441 15.8823 9.31047 15.8519 9.31048 15.8211C9.31048 15.7903 9.30442 15.7598 9.29264 15.7314C9.28086 15.703 9.2636 15.6771 9.24184 15.6553L8.70957 15.123Z" fill="white" stroke="white" stroke-width="0.4"/>
<path d="M5.69716 11.8896L4.92255 11.6122C4.89357 11.6019 4.86283 11.5973 4.83208 11.5988C4.80133 11.6003 4.77118 11.6078 4.74335 11.621C4.68715 11.6476 4.6438 11.6954 4.62285 11.7539C4.60189 11.8125 4.60505 11.8769 4.63162 11.9331C4.6582 11.9893 4.70601 12.0327 4.76454 12.0536L5.53916 12.331C5.59769 12.3519 5.66215 12.3488 5.71836 12.3222C5.77456 12.2956 5.81791 12.2478 5.83886 12.1893C5.85982 12.1307 5.85666 12.0663 5.83008 12.0101C5.80351 11.9539 5.7557 11.9105 5.69716 11.8896Z" fill="white" stroke="white" stroke-width="0.4"/>
</svg>
